<?xml version="1.0" standalone="no"?>
<!DOCTYPE svg PUBLIC "-//W3C//DTD SVG 20010904//EN"
 "http://www.w3.org/TR/2001/REC-SVG-20010904/DTD/svg10.dtd">
<svg version="1.0" xmlns="http://www.w3.org/2000/svg"
 width="1280.000000pt" height="853.000000pt" viewBox="0 0 1280.000000 853.000000"
 preserveAspectRatio="xMidYMid meet">
<g transform="translate(0.000000,853.000000) scale(0.100000,-0.100000)"
fill="#000000" stroke="none">
<path d="M7790 7861 c-25 -14 -138 -21 -166 -11 -20 8 -32 7 -48 -4 -14 -9
-28 -11 -37 -6 -17 10 -82 -9 -101 -28 -7 -7 -24 -12 -38 -12 -14 0 -30 -4
-36 -8 -20 -18 -95 -34 -108 -22 -10 7 -17 6 -26 -5 -7 -8 -25 -14 -41 -13
-17 1 -37 -6 -51 -19 -13 -11 -41 -24 -63 -28 -22 -4 -44 -10 -50 -15 -33 -27
-204 -41 -231 -19 -6 5 -19 7 -28 3 -9 -3 -16 -2 -16 4 0 5 -13 8 -30 6 -16
-2 -32 1 -35 6 -3 6 -18 10 -32 10 -15 0 -34 6 -42 14 -9 8 -45 17 -81 19 -36
3 -78 12 -95 20 -18 10 -71 18 -130 22 -55 4 -118 10 -140 15 -38 8 -186 5
-232 -5 -12 -3 -24 -1 -28 5 -7 11 -131 5 -270 -15 -55 -8 -118 -17 -140 -20
-22 -3 -56 -7 -75 -10 -19 -3 -60 -8 -90 -10 -100 -8 -205 -23 -235 -34 -50
-17 -138 -43 -175 -52 -19 -4 -55 -13 -80 -19 -25 -7 -55 -14 -67 -15 -27 -4
-145 -45 -158 -56 -14 -11 -132 -54 -245 -90 -57 -18 -110 -42 -133 -60 -21
-17 -45 -32 -54 -33 -9 -2 -21 -10 -28 -19 -7 -9 -19 -17 -26 -17 -24 0 -88
-60 -112 -103 -30 -58 -67 -158 -67 -183 0 -12 -6 -26 -12 -32 -12 -9 -223
-88 -288 -107 -14 -4 -34 -14 -45 -21 -11 -8 -25 -14 -33 -14 -7 0 -47 -16
-89 -36 -42 -19 -81 -33 -87 -31 -7 3 -23 -4 -37 -14 -13 -10 -28 -19 -33 -19
-5 0 -30 -10 -55 -21 -25 -12 -57 -27 -71 -33 -14 -6 -42 -21 -62 -33 -21 -13
-44 -23 -51 -23 -7 0 -22 -8 -33 -17 -29 -26 -82 -63 -90 -63 -4 0 -30 -20
-58 -43 -28 -24 -62 -50 -76 -57 -14 -7 -39 -26 -56 -42 -17 -16 -57 -42 -90
-58 -32 -17 -80 -46 -107 -65 -26 -19 -66 -43 -90 -52 -23 -9 -49 -22 -57 -28
-48 -39 -162 -43 -232 -8 -18 9 -40 20 -49 24 -40 18 -135 21 -189 5 -56 -17
-77 -15 -185 9 -33 8 -106 17 -163 20 l-102 7 -102 -42 c-81 -33 -109 -40
-137 -35 -34 6 -126 74 -201 148 -21 20 -47 37 -58 37 -11 0 -27 2 -35 5 -11
5 -13 -6 -11 -54 1 -34 -1 -63 -6 -66 -5 -3 -21 6 -37 19 -22 19 -42 24 -100
28 -40 2 -73 2 -73 0 0 -1 7 -14 16 -28 14 -20 15 -30 5 -51 -11 -24 -15 -25
-76 -21 -60 4 -85 -5 -50 -18 8 -3 19 -20 24 -37 5 -18 12 -40 16 -50 6 -13
-1 -20 -29 -32 -19 -8 -50 -15 -68 -16 -30 0 -31 -1 -12 -11 12 -5 29 -25 38
-44 21 -44 36 -49 109 -37 68 11 119 -1 200 -49 26 -15 50 -28 54 -28 3 0 32
-18 64 -39 76 -51 127 -60 175 -31 l37 21 36 -25 c38 -26 150 -76 216 -96 69
-22 78 -35 71 -110 -4 -36 -9 -85 -11 -110 -7 -89 -26 -194 -36 -206 -5 -7
-11 -23 -13 -36 -1 -13 -6 -32 -11 -43 -4 -11 -18 -45 -31 -76 -13 -30 -28
-87 -35 -125 -15 -86 -61 -209 -91 -242 -13 -13 -35 -30 -51 -38 -15 -8 -27
-21 -27 -28 0 -8 -15 -27 -34 -42 -70 -59 -105 -74 -192 -84 -95 -10 -165 -39
-190 -78 -26 -39 -12 -141 30 -215 l33 -58 -29 -72 c-17 -40 -31 -81 -32 -92
-13 -97 -80 -295 -119 -349 -23 -32 -32 -143 -14 -186 5 -14 9 -35 9 -47 -1
-12 11 -42 26 -65 15 -24 32 -50 37 -59 74 -116 98 -150 146 -207 31 -37 68
-85 82 -107 15 -22 42 -62 62 -90 19 -27 35 -56 35 -63 0 -8 8 -26 19 -40 31
-44 61 -112 92 -204 31 -94 80 -175 120 -196 33 -18 125 -8 159 17 15 11 45
23 66 27 21 4 55 14 74 23 45 20 202 148 223 181 9 14 41 51 72 83 84 89 103
118 135 205 33 91 66 162 183 400 74 151 123 289 132 371 2 19 6 55 10 80 6
45 -17 208 -36 258 -14 38 -12 193 4 192 6 0 32 -13 57 -29 25 -16 74 -45 110
-66 36 -20 97 -56 136 -80 39 -23 136 -75 215 -114 274 -138 399 -226 399
-282 0 -48 29 -145 84 -278 29 -69 92 -257 111 -330 19 -71 19 -196 1 -285 -8
-38 -18 -115 -21 -170 -6 -99 -26 -225 -47 -296 -8 -27 -7 -46 2 -73 6 -19 9
-40 5 -46 -3 -5 -1 -10 4 -10 6 0 11 4 11 10 0 5 16 17 35 26 23 11 37 25 41
43 3 14 11 42 19 61 7 19 17 51 22 70 6 26 9 6 10 -80 1 -124 10 -200 24 -200
5 0 9 4 9 10 0 5 16 25 35 44 21 21 35 45 35 59 0 39 12 87 21 87 10 0 23 -46
21 -73 0 -10 9 -40 22 -66 l22 -49 30 36 c16 20 31 48 34 61 7 35 22 32 42 -9
10 -19 18 -27 18 -18 0 10 11 25 25 34 13 9 26 23 29 32 3 10 1 103 -4 207 -7
155 -12 200 -29 243 -12 29 -21 63 -21 76 0 13 -10 45 -21 71 -19 42 -21 62
-17 159 3 67 10 121 18 136 15 28 30 96 62 280 17 101 21 162 20 318 -2 194
-6 226 -44 337 -26 75 -42 108 -62 124 -9 8 -16 21 -16 31 0 9 -15 37 -33 61
-39 51 -66 124 -71 194 -3 48 -7 64 -26 110 -18 43 -18 68 1 111 29 69 87 132
152 164 34 17 77 50 104 80 55 61 89 80 142 80 27 0 72 15 133 44 86 41 116
49 223 62 73 10 108 -43 106 -158 0 -14 6 -31 13 -38 8 -6 26 -35 42 -66 26
-51 51 -76 134 -133 56 -38 196 -111 213 -111 9 0 59 -14 112 -31 71 -24 95
-36 95 -49 0 -29 -262 -284 -340 -330 -40 -25 -72 -51 -76 -63 -3 -12 -20 -37
-38 -56 -23 -26 -26 -32 -11 -26 11 4 43 11 71 14 39 5 65 17 113 54 60 44 91
58 91 38 0 -11 -98 -135 -178 -224 -43 -49 -62 -79 -67 -107 -4 -21 -13 -46
-20 -57 -22 -29 -17 -36 10 -15 14 11 41 23 60 26 24 5 43 18 62 44 40 53 83
95 90 88 7 -7 -46 -86 -58 -86 -14 0 -36 -52 -43 -99 -3 -25 -10 -49 -16 -55
-21 -21 -9 -26 16 -7 15 12 34 21 43 21 23 1 51 27 101 95 43 59 58 75 73 75
16 0 5 -23 -38 -78 -39 -49 -45 -63 -45 -104 0 -26 -5 -59 -11 -75 l-10 -28
28 28 c16 15 35 27 43 27 7 0 22 7 32 16 16 16 18 15 24 0 4 -10 1 -29 -6 -44
-11 -26 -11 -26 7 -9 11 9 33 22 51 28 21 7 42 27 63 62 17 29 43 66 56 82 39
47 80 118 165 283 43 84 96 181 117 215 21 34 48 93 60 131 30 94 49 129 116
211 31 39 63 83 72 100 20 38 24 129 6 179 -12 35 -11 41 3 58 10 10 25 18 34
18 9 0 21 5 26 10 14 14 144 80 158 80 6 0 19 8 28 18 36 36 55 52 64 52 6 0
23 14 39 30 16 17 35 30 43 30 7 0 30 18 49 40 20 22 41 40 47 40 10 0 60 40
106 83 8 8 44 37 79 65 35 28 73 64 85 79 40 54 70 83 83 83 7 0 13 6 13 14 0
30 48 93 141 186 94 94 152 171 198 263 14 26 30 52 38 58 7 6 13 17 13 25 0
7 8 18 18 23 9 5 23 26 31 48 17 50 39 101 57 135 8 14 14 37 14 50 0 31 37
89 61 95 10 3 19 8 19 12 0 3 18 26 40 51 22 25 40 49 40 53 0 4 17 15 38 24
20 8 40 20 44 26 9 14 59 13 95 -2 19 -8 36 -26 47 -51 12 -27 31 -46 63 -65
l47 -26 22 28 22 28 26 -28 c29 -31 41 -34 50 -11 6 16 8 16 24 0 10 -9 26
-16 34 -16 9 0 33 -25 54 -56 45 -65 85 -92 104 -69 11 13 18 11 50 -15 l38
-30 15 23 c15 22 15 22 23 2 14 -40 54 -72 54 -44 0 6 7 17 15 26 14 13 19 13
50 -1 19 -9 37 -21 40 -26 7 -12 51 -3 81 17 29 19 51 7 75 -38 11 -22 26 -39
33 -39 8 0 16 -7 20 -15 7 -19 20 -19 39 0 13 12 18 9 42 -25 15 -21 33 -41
41 -44 14 -6 17 -1 44 72 7 17 15 32 19 32 3 0 20 -14 36 -31 21 -22 36 -53
50 -107 22 -86 46 -106 66 -55 5 15 20 36 31 47 20 19 21 19 34 2 7 -10 21
-43 30 -73 16 -52 43 -80 52 -55 2 7 19 12 37 12 36 0 45 12 45 61 0 37 16 37
38 -1 9 -16 22 -30 27 -30 6 0 23 -14 39 -30 24 -26 30 -45 41 -126 16 -113
31 -137 84 -132 21 2 36 -2 39 -10 2 -7 8 -10 13 -6 5 3 9 -19 9 -50 0 -43 3
-56 15 -56 18 0 18 1 -1 -56 -8 -25 -13 -48 -11 -51 3 -2 8 5 12 16 9 30 22
26 27 -10 4 -23 -1 -39 -18 -58 -27 -32 -42 -81 -25 -81 8 0 7 -6 -1 -20 -11
-17 -10 -22 1 -30 12 -7 13 -15 3 -47 -10 -32 -9 -40 4 -50 10 -7 11 -13 5
-18 -12 -7 -61 -106 -61 -122 0 -6 7 -13 15 -17 8 -3 15 -12 15 -21 0 -19 37
-20 56 0 21 20 36 19 32 -2 -2 -10 -17 -25 -34 -33 -51 -24 -123 -171 -90
-183 9 -4 12 -14 9 -26 -3 -12 0 -28 7 -36 11 -13 8 -21 -17 -48 -17 -18 -33
-41 -35 -52 -2 -12 -13 -21 -26 -23 -12 -2 -20 -8 -16 -13 3 -6 -3 -20 -14
-32 -11 -12 -30 -42 -43 -66 -20 -39 -21 -45 -7 -55 12 -9 13 -15 4 -30 -8
-14 -8 -20 1 -23 10 -3 10 -9 0 -23 -9 -16 -8 -22 8 -34 15 -11 17 -17 8 -27
-7 -7 -9 -19 -3 -34 7 -18 3 -26 -21 -44 -16 -12 -27 -27 -23 -33 7 -11 -42
-58 -61 -58 -7 0 -22 -8 -34 -17 -21 -18 -21 -18 -3 -53 16 -28 24 -34 46 -32
14 2 30 1 36 -3 17 -11 -19 -52 -63 -71 -48 -21 -50 -21 -95 -23 -29 -1 -32
-3 -22 -20 6 -12 23 -21 42 -23 39 -4 52 -36 19 -45 -24 -6 -29 -23 -7 -23 23
0 26 -14 10 -44 -18 -36 -18 -36 8 -36 l22 0 -22 -20 c-33 -31 -28 -43 13 -36
37 7 45 -3 21 -24 -8 -6 -12 -18 -9 -26 4 -11 -6 -14 -50 -14 -63 0 -81 -13
-40 -28 24 -9 25 -11 7 -11 -27 -1 -56 -31 -30 -31 9 0 16 -4 16 -9 0 -5 10
-12 23 -16 l22 -7 -24 -7 c-27 -7 -50 -51 -26 -51 7 0 16 -4 19 -9 8 -13 -4
-41 -18 -41 -6 0 -17 -9 -23 -19 -10 -15 -8 -26 7 -57 11 -21 19 -38 17 -39
-1 -1 -11 -7 -22 -13 -17 -10 -18 -11 -2 -12 25 0 21 -24 -8 -46 -14 -10 -23
-25 -20 -33 3 -7 0 -20 -6 -27 -9 -11 -8 -21 1 -43 9 -22 9 -34 0 -50 -9 -18
-7 -22 15 -31 31 -12 32 -23 1 -43 -27 -18 -41 -70 -26 -97 8 -15 5 -22 -12
-34 -12 -9 -16 -16 -9 -16 9 0 11 -8 7 -25 -5 -19 -2 -25 9 -25 14 0 14 -3 0
-24 -18 -27 -4 -46 20 -26 18 15 36 4 28 -17 -5 -13 -1 -15 24 -10 41 8 51
-17 23 -55 -20 -27 -15 -39 6 -18 8 8 15 6 24 -5 8 -10 9 -15 1 -15 -6 0 -11
-4 -11 -9 0 -5 -5 -22 -12 -38 -14 -32 -18 -113 -6 -113 4 0 5 -7 2 -15 -4 -8
1 -17 9 -21 12 -4 14 -11 6 -31 -13 -35 -11 -42 10 -36 11 3 21 13 24 24 3 10
9 19 15 19 6 0 6 -19 0 -51 -11 -59 -6 -69 22 -44 17 16 20 16 20 2 0 -9 -5
-19 -11 -23 -8 -4 -7 -9 2 -15 11 -6 9 -14 -7 -36 -43 -59 -42 -74 1 -27 41
45 47 27 30 -98 -6 -51 -5 -57 14 -67 12 -7 21 -22 21 -34 0 -28 18 -47 43
-47 15 0 18 -5 12 -22 -14 -49 -26 -101 -22 -104 2 -2 19 4 38 13 18 9 44 18
56 19 24 3 23 -11 -5 -54 -23 -36 6 -28 49 14 60 59 67 35 18 -59 -7 -12 -5
-17 5 -17 8 0 17 -6 20 -12 3 -10 9 -8 19 5 8 9 17 17 21 17 11 0 7 -28 -6
-42 -7 -7 -14 -27 -15 -45 -2 -26 1 -31 14 -26 13 5 15 1 9 -23 l-6 -29 20 24
c12 13 25 31 30 40 17 31 22 1 6 -39 -23 -57 -21 -68 10 -62 20 4 32 17 50 57
38 88 60 83 25 -5 -17 -44 -17 -46 6 -92 l23 -47 32 14 c20 8 33 20 33 31 0
10 8 20 18 22 12 3 17 -3 17 -20 0 -13 -5 -29 -11 -35 -7 -7 -8 -28 -4 -57 6
-37 10 -44 21 -35 7 6 18 8 24 4 6 -4 22 0 35 9 28 19 41 6 25 -24 -13 -24 1
-50 26 -50 8 0 23 -8 33 -17 35 -32 52 -45 55 -42 1 2 7 15 14 29 l12 25 -1
-25 c-2 -50 0 -52 26 -33 13 10 25 26 25 35 0 9 3 19 8 21 4 3 5 -19 4 -49 -4
-49 -1 -57 22 -75 24 -19 26 -27 26 -90 0 -38 3 -69 6 -69 23 0 44 24 44 53
l0 31 29 -32 c17 -17 35 -32 40 -32 6 0 11 -20 11 -45 0 -48 13 -60 25 -22 6
20 7 19 17 -13 5 -19 12 -37 14 -39 7 -7 33 33 34 52 0 19 11 22 26 7 11 -11
24 8 44 64 9 23 13 26 25 16 8 -7 15 -23 15 -36 0 -44 19 -77 40 -71 11 3 23
0 27 -6 8 -13 27 30 24 55 -1 9 3 19 9 23 6 4 10 -10 10 -38 0 -27 6 -49 15
-57 13 -10 15 -9 15 9 0 25 12 27 30 6 7 -9 20 -13 28 -10 15 6 52 -26 52 -45
0 -5 6 -10 14 -10 8 0 18 -9 21 -20 10 -31 37 -25 35 8 -3 42 -2 44 22 28 30
-22 36 -20 31 8 -5 24 15 36 65 36 15 0 22 6 22 20 0 25 17 26 43 2 19 -16 20
-16 15 6 -6 23 15 32 27 12 12 -19 24 -10 47 37 19 38 28 47 46 46 12 -2 22 2
22 7 0 24 34 6 87 -45 57 -55 92 -73 74 -37 -11 21 -61 142 -61 148 0 12 20 0
70 -42 30 -25 64 -50 75 -55 32 -16 62 -34 79 -48 24 -20 31 -6 9 16 -10 11
-35 39 -56 64 -20 24 -44 51 -52 60 -24 25 -17 31 13 11 15 -11 38 -27 52 -36
14 -9 40 -28 59 -41 34 -25 81 -34 81 -15 0 6 -6 10 -13 10 -22 0 -107 61
-107 76 0 17 3 17 45 0 44 -19 50 -9 19 29 -21 25 -26 28 -35 15 -9 -13 -10
-13 -6 1 4 11 -15 35 -60 73 -35 31 -69 56 -74 56 -5 0 -9 4 -9 9 0 4 33 7 73
4 l72 -4 -47 25 c-62 34 -72 51 -24 42 41 -8 51 10 11 20 -14 3 -25 12 -25 19
0 7 -7 15 -15 19 -8 3 -15 10 -15 16 0 16 30 12 36 -5 8 -19 34 -20 34 -1 0 7
-9 16 -20 19 -18 5 -19 8 -8 32 11 24 10 29 -7 41 -10 8 -30 14 -43 14 -30 0
-27 34 3 36 38 2 40 5 16 23 -30 23 -20 41 25 41 33 0 45 12 23 25 -5 4 -9 19
-7 33 2 22 -3 30 -29 42 -37 17 -42 30 -14 37 21 5 18 43 -4 43 -11 0 -25 20
-25 36 0 2 12 4 28 4 80 1 102 37 25 42 l-48 3 28 16 29 16 -56 28 c-59 30
-70 45 -33 45 l22 0 -25 20 c-14 11 -35 20 -47 20 -24 0 -31 14 -13 25 22 14
10 35 -21 35 -36 0 -35 21 2 30 19 5 23 12 21 35 -2 16 -11 35 -20 42 -15 11
-15 14 -3 22 13 8 13 12 1 26 -11 13 -23 15 -52 11 -23 -4 -38 -2 -38 4 0 5 9
10 20 10 11 0 20 5 20 10 0 6 -4 10 -10 10 -5 0 -10 16 -10 35 0 33 -1 34 -26
25 -14 -6 -30 -8 -35 -5 -5 3 -18 1 -29 -5 -11 -6 -42 -12 -69 -14 l-50 -4 1
31 c1 17 -4 33 -11 35 -19 6 -57 45 -64 65 -5 14 -15 18 -41 16 -44 -4 -74 18
-82 60 -7 32 -6 33 17 26 23 -7 23 -7 7 12 -10 11 -18 24 -18 30 0 6 -7 16
-15 23 -9 7 -14 19 -11 25 9 24 -25 97 -59 130 -30 27 -34 37 -29 63 5 22 0
38 -16 60 -39 53 -33 183 8 158 5 -3 9 17 10 43 1 37 -4 53 -19 67 -24 22 -25
37 0 29 12 -3 21 0 25 11 4 9 13 14 21 10 18 -6 18 -3 5 88 -7 48 -7 73 0 81
8 9 8 15 0 20 -15 9 -12 55 4 55 8 0 17 7 20 16 4 10 12 14 22 10 14 -5 15 -1
9 31 -5 31 -4 36 6 26 24 -23 30 -14 23 33 -6 45 -6 46 16 39 21 -7 22 -5 18
20 -3 15 1 41 10 58 12 23 13 37 4 59 -9 26 -9 27 10 17 15 -8 24 -7 38 6 22
20 51 132 43 165 -4 15 -2 21 4 17 6 -4 13 0 17 8 3 8 12 15 21 15 8 0 15 8
15 18 0 10 5 23 10 28 6 6 13 39 16 74 6 65 17 85 50 92 15 2 20 13 22 56 2
28 7 52 13 52 6 0 6 7 -1 19 -16 30 -12 43 10 36 11 -4 20 -2 20 4 0 6 -7 11
-15 11 -17 0 -44 58 -37 78 3 8 14 12 28 9 15 -2 21 0 17 9 -7 19 15 54 31 48
18 -7 49 42 41 67 -4 11 -2 26 4 32 10 13 10 42 -2 53 -4 4 -7 16 -7 27 0 11
-14 42 -31 68 -24 38 -28 52 -20 67 7 13 7 22 -1 30 -9 9 -8 12 5 12 9 0 17 5
17 11 0 6 8 8 20 4 17 -5 19 -2 16 27 -2 18 -7 45 -11 61 -6 21 -4 27 9 27 9
0 16 6 17 13 2 34 11 73 22 91 6 12 10 25 9 30 -2 5 2 22 9 38 10 24 9 32 -5
47 -20 22 -21 57 -1 65 12 4 13 10 5 25 -14 27 -2 53 21 46 23 -8 27 23 4 31
-8 4 -15 10 -15 15 0 5 7 9 15 9 22 0 18 14 -7 25 -19 8 -22 17 -20 46 2 21
-1 40 -7 44 -25 15 -10 27 25 20 44 -8 38 9 -9 29 l-32 13 38 8 38 7 -33 20
c-44 27 -45 28 -28 39 13 8 12 12 -6 27 -12 9 -29 22 -38 27 -10 6 -18 17 -20
26 -1 10 -8 24 -15 33 -11 13 -11 17 3 22 15 6 13 11 -14 37 -28 27 -29 31
-13 42 15 12 15 14 -5 26 -27 17 -29 39 -4 39 10 0 22 3 25 6 6 6 -9 43 -22
54 -3 3 -12 16 -20 29 -12 22 -11 26 9 41 15 11 19 19 11 24 -6 4 -11 16 -11
26 0 26 -27 50 -56 50 -17 0 -24 5 -24 20 0 11 -4 20 -8 20 -4 0 -8 17 -7 38
0 30 -3 37 -20 37 -16 0 -20 7 -20 30 0 17 -6 34 -12 38 -7 4 -13 15 -13 24 0
13 -3 13 -15 3 -12 -10 -19 -10 -27 -2 -9 9 -8 12 5 12 10 0 17 8 17 20 0 14
-7 20 -21 20 -19 0 -19 1 -5 22 9 12 16 33 16 45 0 23 10 30 74 49 62 19 38
31 -85 43 -101 10 -125 16 -138 33 -10 12 -30 20 -51 21 -24 1 -36 7 -38 20
-2 9 2 17 9 17 22 0 38 32 26 51 -9 14 -7 22 7 38 17 19 17 20 -13 42 -23 17
-28 26 -20 35 18 22 -25 35 -114 35 -131 -1 -129 -1 -122 18 4 9 7 20 8 25 3
13 -34 16 -56 5 -25 -14 -34 -3 -15 18 30 36 32 45 7 42 -13 -1 -35 3 -49 8
l-24 10 23 12 22 12 -26 25 c-19 17 -25 32 -22 45 5 18 2 20 -16 14 -12 -4
-37 -9 -55 -12 -32 -5 -33 -4 -26 22 6 25 5 27 -12 20 -19 -8 -105 -8 -113 1
-3 2 0 9 6 15 9 9 8 17 0 33 -18 31 -29 37 -60 30 l-28 -6 25 40 25 39 -67 2
c-74 1 -83 6 -58 24 11 8 15 19 10 31 -10 25 -77 16 -109 -14 -17 -16 -32 -21
-49 -18 -17 4 -26 1 -26 -8 0 -7 -6 -11 -14 -8 -8 3 -17 1 -21 -5 -3 -6 -11
-11 -17 -11 -7 0 4 14 23 31 21 20 29 33 22 36 -7 3 -13 11 -13 20 0 45 -53
50 -138 10 -51 -23 -107 -18 -128 12 -11 15 -23 19 -53 16 -36 -3 -38 -2 -33
23 l5 27 -36 -27 c-25 -20 -50 -29 -89 -32 -29 -2 -64 -8 -77 -12 -21 -6 -23
-5 -15 17 8 25 9 35 6 86 -2 25 -6 30 -21 26 -10 -3 -32 -18 -47 -34 -30 -32
-61 -38 -70 -14 -4 8 -13 15 -21 15 -7 0 -13 6 -12 13 3 27 -2 39 -15 34 -9
-4 -17 1 -20 11 -5 13 -17 17 -58 16 -57 -1 -106 -11 -125 -26 -16 -13 -48 9
-59 41 l-9 25 -42 -37 -41 -38 -7 31 c-6 26 -9 28 -26 20 -16 -9 -19 -7 -19
10 0 23 -13 26 -29 6 -17 -20 -82 -9 -103 18 -15 19 -18 19 -35 4 -26 -23 -93
-49 -93 -36 0 6 -10 8 -25 4 -14 -4 -25 -2 -25 3 0 5 -13 4 -31 -2 -28 -11
-33 -10 -54 15 -20 23 -29 27 -54 22 -20 -4 -31 -2 -31 5 0 13 -77 15 -100 2z
m1970 -356 c0 -8 -7 -15 -15 -15 -26 0 -18 20 13 29 1 1 2 -6 2 -14z m-360
-1765 c0 -5 -5 -10 -11 -10 -5 0 -7 5 -4 10 3 6 8 10 11 10 2 0 4 -4 4 -10z
m-4310 -1714 c0 -16 -18 -31 -27 -22 -8 8 5 36 17 36 5 0 10 -6 10 -14z m5330
-531 c7 -9 8 -15 2 -15 -5 0 -12 7 -16 15 -3 8 -4 15 -2 15 2 0 9 -7 16 -15z
m-6723 -1057 c-3 -8 -6 -5 -6 6 -1 11 2 17 5 13 3 -3 4 -12 1 -19z m5444 -291
c-8 -8 -11 -7 -11 4 0 20 13 34 18 19 3 -7 -1 -17 -7 -23z m1944 -17 c-3 -5
-10 -10 -16 -10 -5 0 -9 5 -9 10 0 6 7 10 16 10 8 0 12 -4 9 -10z m-1600 -410
c3 -5 1 -10 -4 -10 -6 0 -11 5 -11 10 0 6 2 10 4 10 3 0 8 -4 11 -10z m1375
-406 c0 -8 -5 -12 -10 -9 -6 4 -8 11 -5 16 9 14 15 11 15 -7z m-376 -128 c6
-26 5 -28 -8 -17 -9 8 -16 25 -16 39 0 32 15 18 24 -22z"/>
<path d="M11265 1910 c3 -5 16 -10 28 -10 18 0 19 2 7 10 -20 13 -43 13 -35 0z"/>
<path d="M11225 1700 c3 -5 15 -10 26 -10 11 0 17 5 14 10 -3 6 -15 10 -26 10
-11 0 -17 -4 -14 -10z"/>
<path d="M11360 1326 c28 -27 80 -45 80 -27 0 11 -71 51 -92 51 -7 0 -1 -11
12 -24z"/>
</g>
</svg>
